<svg id="Layer_1" data-name="Layer 1" xmlns="http://www.w3.org/2000/svg" xmlns:xlink="http://www.w3.org/1999/xlink" viewBox="0 0 448.48 246.02"><defs><style>.cls-1,.cls-24,.cls-7{fill:#e3000f;}.cls-1,.cls-2,.cls-3{clip-rule:evenodd;}.cls-2,.cls-26,.cls-4{fill:#2f2483;}.cls-3,.cls-31{fill:none;}.cls-5{fill:#219036;}.cls-6{fill:#fec900;}.cls-8{fill:#e94d11;}.cls-9{fill:#3d509e;}.cls-10{fill:#bb163e;}.cls-11{fill:#ede000;}.cls-12{fill:#9fc028;}.cls-13{fill:#bc1a19;}.cls-14{fill:#33b6b1;}.cls-15{fill:#08a2d5;}.cls-16{fill:#0d7dbb;}.cls-17{fill:#f3b500;}.cls-18{fill:#5fb46c;}.cls-19{fill:#2a3369;}.cls-20{fill:#242b61;}.cls-21{fill:#c81818;}.cls-22{fill:#ea7f00;}.cls-23{fill:#01844b;}.cls-24,.cls-26{fill-rule:evenodd;}.cls-25{clip-path:url(#clip-path);}.cls-27{clip-path:url(#clip-path-2);}.cls-28{clip-path:url(#clip-path-3);}.cls-29{clip-path:url(#clip-path-4);}.cls-30{fill:#fff;}.cls-31{stroke:#2f2483;stroke-miterlimit:22.93;stroke-width:2px;}</style><clipPath id="clip-path"><path class="cls-1" d="M338.28,78s11,7.49,17.27,18.38,5.79,12.19,5.79,12.19,2.07-2.84-7.43-20.31S338.28,68,338.28,68Z"/></clipPath><clipPath id="clip-path-2"><path class="cls-2" d="M341.91,141.61c.45-2.68,1.22-7.49,4.9-9.21,5.89-2.76,5.3,8.25-.24,17.39-2.9,4.79-6.3,7.46-7,8.65,4.05-2.44,9.3-8.46,11.53-12a26.92,26.92,0,0,0,4.49-14.54c-.12-12.77-10.66-9.63-13.22,1.87-.4,1.79-1,5.68-.42,7.83"/></clipPath><clipPath id="clip-path-3"><path class="cls-3" d="M348.43,111.85c-3.9,3.63.58,11.39,4.1,8.11s-.68-11.28-4.1-8.11"/></clipPath><clipPath id="clip-path-4"><path class="cls-1" d="M353.25,122.24c.55.49,1.66.51,2.68,2.41s.76,2.73,1.17,4.35c1.58-2,3.36-7.35,3.84-9.66s1.45-8,.48-10.88c-.38,1.43.32,3.54-2,7.58a19.1,19.1,0,0,1-6.17,6.2"/></clipPath></defs><path class="cls-4" d="M194.51,149.38,203,107.74H223.3c6.47,0,11.32,5.49,11.32,12.29,0,6.06-3.7,16.24-17,16.24h-8.77l-2.65,13.11Zm23.66-24.1c2.13,0,4.38-1.38,4.38-3.81,0-1.87-1.21-2.75-3.17-2.75h-7l-1.33,6.56Z"/><path class="cls-4" d="M232.71,149.38l8.48-41.64h20.32c6.46,0,11.31,5.49,11.31,12.29,0,6.06-3.7,16.24-17,16.24H247l-2.65,13.11Zm23.66-24.1c2.13,0,4.39-1.38,4.39-3.81,0-1.87-1.22-2.75-3.18-2.75h-7l-1.33,6.56Z"/><polygon class="cls-4" points="270.91 149.38 279.39 107.73 291.05 107.73 284.82 138.39 299.42 138.39 297.17 149.38 270.91 149.38"/><polygon class="cls-4" points="301.84 149.38 310.32 107.73 339.53 107.73 337.27 118.72 319.73 118.72 318.92 122.84 336.06 122.84 333.81 133.83 316.67 133.83 315.75 138.39 333.29 138.39 331.04 149.38 301.84 149.38"/><path class="cls-4" d="M179.79,149.38l-.4-4.87H165.54l-2.37,4.87H149.38l22.68-41.65h14.66l5.71,41.65Zm-2.36-29.28-6.52,13.42h7.62Z"/><path class="cls-4" d="M137.6,149.37l-.41-4.87H123.34L121,149.37H107.18l22.68-41.64h14.66l5.71,41.64Zm-2.37-29.28-6.52,13.43h7.61Z"/><path class="cls-5" d="M114.62,95.86c1.12-7.78-5.46-18.07-15.11-18.91C98.4,85.7,105.74,96.47,114.62,95.86Z"/><path class="cls-5" d="M140.58,101.38H91.51a17.94,17.94,0,0,1,7.35-3.81,11.59,11.59,0,0,1,6.55-.12c2.17.69,4.3,1.54,6.44,2.34,1.5.55,3,1.22,4.61.64,1.4-.5,2.79-1.07,4.17-1.63a21.48,21.48,0,0,1,8.16-2,12.41,12.41,0,0,1,1.49.09,17.66,17.66,0,0,1,10.3,4.46"/><path class="cls-6" d="M122.91,114.17H84.34a25.48,25.48,0,0,1,2.42-6.7,21,21,0,0,1,4.55-5.92h49.46c.32.3.64.62.95,1,.7.76,1.29,1.64,1.95,2.49-.15.1-.28.22-.41.32H127.73Z"/><path class="cls-7" d="M116,126.83H83.92a44.81,44.81,0,0,1-.23-7.7,33.13,33.13,0,0,1,.64-4.91h38.56Z"/><path class="cls-8" d="M109.12,139.49H87l-.15-.43a55,55,0,0,1-2.92-12.18H116Z"/><path class="cls-9" d="M138.38,152.16H93.75A52.13,52.13,0,0,1,87,139.54H109.1l-6.65,12.21h36.22Z"/><path class="cls-10" d="M93.75,152.16h44.63c-.81,1.14-1.67,2.24-2.57,3.31a10.64,10.64,0,0,1-4.43,3.27,10,10,0,0,1-7.53-.53,47.82,47.82,0,0,0-4.57-1.76,12.82,12.82,0,0,0-8.58.66c-1.61.64-3.22,1.29-4.85,1.9a10.4,10.4,0,0,1-1.58.38h-1.83c-.58-.19-1.17-.35-1.73-.58a12.79,12.79,0,0,1-4.92-4c-.7-.87-1.39-1.76-2-2.67"/><path class="cls-11" d="M236.16,77.82a94.28,94.28,0,0,0,31.13,0c-.14.31-.69.4-.53.81.53,1.46-.42,1.54-1.3,1.75-1.9.46-3.82.87-5.7,1.46-.81.26-2.22.28-2.12,1.48.08,1,1.41.72,2.22.88.51.1,1.28-.15,1.38.57s-.7.72-1.17.94c-2,1-4.3,1.16-6.39,2,2.69.08,5.36,0,8,0,.92,0,2.1-.21,2.26,1.1.14,1.15-.91,1.65-1.77,2-1.57.67-3.17,1.26-4.75,1.88-.62.24-1.27.4-1.51,1.2-6.58.14-12.5-2.16-18.08-5.73a83.19,83.19,0,0,0-1.7-10.44"/><path class="cls-12" d="M255.94,94c.24-.8.89-1,1.51-1.2,1.58-.62,3.18-1.21,4.75-1.88.86-.37,1.91-.87,1.77-2-.16-1.31-1.34-1.11-2.26-1.1-2.67,0-5.34,0-8,0,2.09-.85,4.35-1,6.39-2,.47-.22,1.28-.19,1.17-.94s-.87-.47-1.38-.57c-.81-.16-2.13.09-2.22-.88-.1-1.2,1.31-1.22,2.12-1.48,1.88-.59,3.8-1,5.7-1.46.88-.21,1.83-.29,1.3-1.75-.16-.41.39-.5.53-.81,4-.9,8.06-2,12-3.18a39.19,39.19,0,0,0,13.22-7.49c3.67-3,7.62-5.41,12.23-6.32,0,.31,0,.61,0,.92a30,30,0,0,0-6.54,2.63,51.25,51.25,0,0,0-14,12.1c-4.12,4.94-8.34,9.73-13.81,13.08-4.55,2.8-9.28,4.51-14.53,4.39"/><path class="cls-13" d="M222.19,74.55A16,16,0,0,0,225,78c-.62.65.16.84.38,1.1a63.82,63.82,0,0,0,11.85,11.33c-2.27-.07-4.22-1.24-6.26-2.11a55.1,55.1,0,0,1-6.66-5.21c-1.35-1.35-2.77-2.62-4.18-3.9-.32-.29-.71-.69-1.15-.42s-.2.74-.22,1.14a11.43,11.43,0,0,0,.49,3.62c.37,1.34,1.36,2.32,1.61,3.73a10.28,10.28,0,0,1-3.74-4.78,23.41,23.41,0,0,1-2.33-9.26Z"/><path class="cls-14" d="M319.32,60.52a43,43,0,0,1,12.41,3.74c-1.25,3.06-3.84,5-5.58,7.6a1.37,1.37,0,0,1-1.32.48,21.28,21.28,0,0,0-8.8-5.56,3.59,3.59,0,0,1,1.36-2.8,5.6,5.6,0,0,0,1.93-3.46"/><path class="cls-15" d="M326.23,71.73c1.74-2.57,4.27-4.46,5.5-7.47A27.91,27.91,0,0,1,338.28,68c.81.57,1.47,1.52,2.28,2.09a2.14,2.14,0,0,1,1,1.25c-.23,0-.47-.55-.7-.54-.95-.12-1.31-2-2.61-1a1,1,0,0,0-1,.44c-1.21,1.64-2.48,3.23-3.69,4.86Z"/><path class="cls-12" d="M275.62,89.53a41.34,41.34,0,0,1-6.57,3.85c.07-.27.15-.54.22-.81l0,.07,1-.7.33-.34h0l.65-.39v0l.38-.4a61.32,61.32,0,0,0,7.39-6.68c2.78-3.09,5.44-6.3,8.23-9.37,4.39-4.84,9.19-9.05,15.26-11.23a11.31,11.31,0,0,1-.35,1.3c-.28.67-.1,1,.54,1l-1.26.33c-2.59.68-5.13,1.44-7.11,3.56-.7.46-1.55,1.09-1.44,1.91s1.19.6,1.84.86c.47.2,1.23.06,1.28.8s-.63.75-1,1a58,58,0,0,0-11.67,8.75A27.42,27.42,0,0,0,280.86,85c-1.54,1.51-3.49,2.45-4.78,4.26l-.09,0c-.21-.07-.32,0-.37.24"/><path class="cls-16" d="M334.09,73.67c1.07-1.18,2.16-2.33,3.21-3.52a1.08,1.08,0,0,1,1-.37,3.13,3.13,0,0,1,1.11,1.35c1,2.52,1.89,5.14,5.15,6.09.09,0,.14.15.2.23-.33,1-1.7,1.43-1.8,2.5Z"/><path class="cls-17" d="M225,78a16.51,16.51,0,0,1-3.32-4.26,110.59,110.59,0,0,0,14.44,4,83.34,83.34,0,0,1,1.7,10.43,38.19,38.19,0,0,1-6-4.25c-2.31-2-4.56-4-6.84-6"/><path class="cls-18" d="M302.75,65.87c-.66,0-.83-.34-.55-1a11.31,11.31,0,0,0,.35-1.3,26,26,0,0,1,8.8-1.91,4.87,4.87,0,0,0,2.25,0,2.64,2.64,0,0,0-2.21-.47,24,24,0,0,0-6.6.62c0-.31,0-.61,0-.92a31.48,31.48,0,0,1,14.54-.35A5.6,5.6,0,0,1,317.39,64a3.59,3.59,0,0,0-1.36,2.8c-2.09-.29-4.12-1-6.25-.94l-.64,0-1.94,0h-.71l-.62.06-3.12.05"/><path class="cls-19" d="M347.55,79.64c.08-.28,0-.66.38-.75.46,1.57,1.51,2.89,1.63,4.6-.51.33-.1,1.06-.53,1.42-.07-1.89-.92-3.54-1.48-5.27"/><path class="cls-18" d="M275.62,89.53c.05-.21.16-.31.37-.24l-.37.24"/><path class="cls-20" d="M269.27,92.57l-7.42,3a31.89,31.89,0,0,1-9.38.69,16.33,16.33,0,0,1-5.12-1.17,11.77,11.77,0,0,0-1.88-.48,55,55,0,0,1-8.2-4.17,63.82,63.82,0,0,1-11.85-11.33c-.22-.26-1-.45-.38-1.1,2.28,2,4.53,4,6.84,6a38.92,38.92,0,0,0,6,4.26c5.58,3.57,11.5,5.87,18.08,5.73,5.25.12,10-1.59,14.53-4.39,5.47-3.35,9.69-8.14,13.81-13.08a51.25,51.25,0,0,1,14-12.1,30,30,0,0,1,6.54-2.63,24,24,0,0,1,6.6-.62l0,.48a26.26,26.26,0,0,0-8.8,1.91c-6.07,2.18-10.87,6.39-15.26,11.23-2.79,3.07-5.45,6.28-8.23,9.37a61.32,61.32,0,0,1-7.39,6.68l-.38.4v0a5.59,5.59,0,0,1-.65.39h0l-.34.34-1,.7Z"/><path class="cls-20" d="M347.55,79.64c.56,1.73,1.41,3.38,1.48,5.27-.25.57-.43,0-.63,0-.38-2.59-1.93-4.32-3.67-5.91-.06-.09-.1-.24-.19-.27-3.27-1.14-4.16-4.27-5.15-7.28a3.67,3.67,0,0,0-1.11-1.62c1.3-.94,1.66.91,2.61,1a35,35,0,0,1,6.66,8.83"/><path class="cls-20" d="M311.35,61.65l0-.48a2.64,2.64,0,0,1,2.21.47,4.87,4.87,0,0,1-2.25,0"/><path class="cls-20" d="M309.78,65.84c-.24.3-.45.27-.64,0l.64,0"/><path class="cls-21" d="M221.93,101.12l-.42.18a1,1,0,0,0,1.05.31c0-.13,0-.25,0-.38Z"/><path class="cls-21" d="M261.85,95.59a31.89,31.89,0,0,1-9.38.69,16.59,16.59,0,0,1-5.12-1.16,10.82,10.82,0,0,0-1.88-.49,17.6,17.6,0,0,0-2.86,6.67c-.69,0-1.38.06-2.06,0,.68,0,1.37,0,2.06,0a17.6,17.6,0,0,1,2.86-6.67,55,55,0,0,1-8.2-4.17c-2.27-.08-4.22-1.24-6.26-2.11a55.1,55.1,0,0,1-6.66-5.21c-1.35-1.35-2.77-2.62-4.18-3.9-.32-.29-.71-.69-1.16-.42s-.19.74-.21,1.14a11.43,11.43,0,0,0,.49,3.62c.37,1.34,1.36,2.32,1.61,3.73a10.33,10.33,0,0,1-3.74-4.78h0a25.3,25.3,0,0,1-2.4-11.5l-2.63.36a87.6,87.6,0,0,0-20.87-10.28c-9.62-3.06-14.65,3.61-14.65,3.61a12.53,12.53,0,0,1,6-2.08c3.53-.13,6.18,2.79,8.2,5.58a80.86,80.86,0,0,1,5.93,10.58A51.85,51.85,0,0,0,206.93,93a18.23,18.23,0,0,0,3.14,2.67,31.18,31.18,0,0,0,11.44,5.61l.42-.18c-1.43-1.14-3.22-1.3-4.81-2,1.59.7,3.38.86,4.81,2l.64.11a.81.81,0,0,1,.53.15.81.81,0,0,0-.53-.15c0,.13,0,.25,0,.38l.11.07.11,0a48.94,48.94,0,0,0,24.31.45l.06-.34h0a2,2,0,0,0,1.29-.41l0-.6,5-1a2.25,2.25,0,0,1,2.09-.5,3.71,3.71,0,0,1-2.16.92c0-.14.05-.28.07-.42l-5,1c0,.2,0,.4,0,.6a7.75,7.75,0,0,0,1.85-.29,7.75,7.75,0,0,1-1.85.29,2,2,0,0,1-1.3.41l-.06.34a47.72,47.72,0,0,0,14.77-4.75,29.3,29.3,0,0,0,7.19-4c.08-.27.15-.54.22-.81ZM212.64,92a7.89,7.89,0,0,1,.84-2.73A7.89,7.89,0,0,0,212.64,92Zm3.88-9.39a1.13,1.13,0,0,0-.5.63A1.13,1.13,0,0,1,216.52,82.63Zm-1.66,9.25a1.69,1.69,0,0,1,2.14-.41A1.69,1.69,0,0,0,214.86,91.88Zm6.6-3.52-.14-.36c.09,0,.2-.09.26,0s.08.17.12.27Zm.9.7c.24-.33.31,0,.42.12Zm34,10a.65.65,0,0,1-.13,0s0-.11,0-.11a.65.65,0,0,1,.13,0S256.35,99.08,256.34,99.08Z"/><path class="cls-21" d="M253.31,100.21c0-.14.05-.28.07-.42a2.25,2.25,0,0,1,2.09-.5,3.71,3.71,0,0,1-2.16.92"/><path class="cls-22" d="M256.38,99s0,.11,0,.11a.65.65,0,0,1-.13,0s0-.11,0-.11a.65.65,0,0,1,.13,0"/><path class="cls-13" d="M221.7,88.22l-.24.14-.14-.36c.09,0,.2-.09.26,0s.08.17.12.27"/><path class="cls-13" d="M222.8,89.19l-.43-.13c.24-.34.3,0,.42.13Z"/><path class="cls-13" d="M222.79,89.19l.14.08-.13-.09Z"/><path class="cls-23" d="M336.47,74.57c-8-4.8-12.4-7.33-25.12-8.67h0a9.13,9.13,0,0,0-1.57-.06c-.51-.07-1.94-.08-2.58-.09h-.71l-.62.06-3.13.05-1.26.33c-2.59.68-5.13,1.44-7.11,3.56a1.44,1.44,0,0,0,1,.44,1.44,1.44,0,0,1-1-.44c-.7.46-1.55,1.09-1.44,1.91s1.19.6,1.84.86c.47.2,1.23.06,1.28.8s-.63.75-1,1a58,58,0,0,0-11.67,8.75A27.42,27.42,0,0,0,280.86,85c-1.54,1.51-3.49,2.45-4.79,4.26l20.67-12.37c-.32-.36-.65-.72-1-1.09-2.53,1.09-4.69,2.85-7,4.3-1.54,1-3,2.05-4.53,3.07,1.51-1,3-2.1,4.52-3.07,2.34-1.45,4.5-3.21,7-4.3.32.37.65.73,1,1.09,1.28-.59,2.56-1.2,3.85-1.76a47,47,0,0,1,10.94-3l7.82-.14,1,.08c2.74.37,13.63,2.2,22.5,9.13a24.94,24.94,0,0,1,4.08,4.25S342.76,78.33,336.47,74.57Zm-31.32-4.39a1.24,1.24,0,0,0-.3.84A1.19,1.19,0,0,1,305.15,70.18Zm-4.95-1.9a2.78,2.78,0,0,0-1.51,1.34h0A2.78,2.78,0,0,1,300.2,68.28Zm-2.1,1.27a5.81,5.81,0,0,0-.59,0A5.81,5.81,0,0,1,298.1,69.55Zm.84,2.82a4.72,4.72,0,0,0-2.59,2.32,4.72,4.72,0,0,1,2.59-2.32,19.43,19.43,0,0,1,2.73-.56A19.43,19.43,0,0,0,298.94,72.37ZM311.2,70.1a9,9,0,0,1,3,1l.48.23-.48-.23A9,9,0,0,0,311.2,70.1Z"/><path class="cls-17" d="M238.31,83.45c-.88-.17-.06-1.22.22-1.63.53-.81-.35-.57-.3-1.2.2-.05.64-.2.65-.43s-.6-.35-.75-.45c.34-.55.47-.49-.09-.76s-1.2-1-1.94-1.17-1.68-.3-2.5-.48c-6.4-1.44-12.4-4.39-18.2-7.56-6.53-3.56-13.38-7.37-20.61-9-4.28-1-8.61-1.31-12.76.28,3.22-1.23,7.22,0,10.35,1A50.37,50.37,0,0,1,203,66.45c9.83,6,19.3,12.59,29.19,18.48,1.88,1.12,3.77,2.25,5.67,3.33Z"/><path class="cls-24" d="M338.28,78s11,7.49,17.27,18.38,5.79,12.19,5.79,12.19,2.07-2.84-7.43-20.31S338.28,68,338.28,68Z"/><g class="cls-25"><rect class="cls-7" x="338.28" y="68.01" width="25.13" height="40.56"/></g><path class="cls-26" d="M341.91,141.61c.45-2.68,1.22-7.49,4.9-9.21,5.89-2.76,5.3,8.25-.24,17.39-2.9,4.79-6.3,7.46-7,8.65,4.05-2.44,9.3-8.46,11.53-12a26.92,26.92,0,0,0,4.49-14.54c-.12-12.77-10.66-9.63-13.22,1.87-.4,1.79-1,5.68-.42,7.83"/><g class="cls-27"><rect class="cls-4" x="339.53" y="119.14" width="16.07" height="39.3"/></g><g class="cls-28"><rect class="cls-4" x="344.53" y="108.68" width="11.63" height="14.56"/></g><path class="cls-24" d="M353.25,122.24c.55.49,1.66.51,2.68,2.41s.76,2.73,1.17,4.35c1.58-2,3.36-7.35,3.84-9.66s1.45-8,.48-10.88c-.38,1.43.32,3.54-2,7.58a19.1,19.1,0,0,1-6.17,6.2"/><g class="cls-29"><rect class="cls-7" x="353.25" y="108.46" width="9.15" height="20.54"/></g><path class="cls-30" d="M318.89,173.89l2.36-1.21a2.25,2.25,0,0,0,1,1.33,3.26,3.26,0,0,0,1.82.46,2.44,2.44,0,0,0,1.49-.41,1.32,1.32,0,0,0,.54-1.13c0-.63-.64-1.17-1.93-1.63-.43-.14-.77-.27-1-.37a8.14,8.14,0,0,1-2.78-1.57,2.64,2.64,0,0,1-.79-1.94,3,3,0,0,1,1.3-2.54,5.59,5.59,0,0,1,3.44-1,5.67,5.67,0,0,1,2.47.5,3.12,3.12,0,0,1,1.49,1.42l-2,1.31a1.82,1.82,0,0,0-.78-.89,2.46,2.46,0,0,0-1.28-.32,2.13,2.13,0,0,0-1.3.36,1.13,1.13,0,0,0-.49,1c0,.6.73,1.16,2.19,1.66.46.15.82.28,1.07.38a6.32,6.32,0,0,1,2.45,1.45,2.85,2.85,0,0,1,.74,2,3.2,3.2,0,0,1-1.35,2.74,6.15,6.15,0,0,1-3.71,1,6.46,6.46,0,0,1-3-.64,4.52,4.52,0,0,1-1.88-2m-6,2.12v-9.33h-2.17v-2.34h2.17v-4.41h2.84v4.41h2.17v2.34H315.7V176Zm-16.4,0V164.34h2.67v1.91a5.25,5.25,0,0,1,2-1.76,6.43,6.43,0,0,1,2.81-.56,6,6,0,0,1,2.36.42,3.41,3.41,0,0,1,1.52,1.22,3.32,3.32,0,0,1,.47,1.12,12.47,12.47,0,0,1,.14,2.24V176h-2.86v-6A5.41,5.41,0,0,0,305,167a2.58,2.58,0,0,0-2.12-.76,4.33,4.33,0,0,0-1.77.35,2.83,2.83,0,0,0-1.22,1,2.53,2.53,0,0,0-.44,1.08,12.89,12.89,0,0,0-.12,2.09V176Zm-6.89,0V164.34h2.84V176Zm-.37-16.71a1.6,1.6,0,0,1,.53-1.18,1.81,1.81,0,0,1,1.26-.49,1.78,1.78,0,0,1,1.27.48,1.57,1.57,0,0,1,.5,1.19,1.61,1.61,0,0,1-.51,1.2A1.78,1.78,0,0,1,291,161a1.74,1.74,0,0,1-1.26-.51A1.57,1.57,0,0,1,289.2,159.3Zm-6.43,10.84a4.08,4.08,0,0,0-.89-2.82,3.59,3.59,0,0,0-5,0,5,5,0,0,0,0,5.76,3.49,3.49,0,0,0,5-.09A4.21,4.21,0,0,0,282.77,170.14Zm2.76,5.87h-2.84V174.5a4.84,4.84,0,0,1-1.77,1.5,5.38,5.38,0,0,1-2.32.49,5.27,5.27,0,0,1-4.14-1.69,6.72,6.72,0,0,1-1.51-4.64,6.5,6.5,0,0,1,1.54-4.51,5.19,5.19,0,0,1,4-1.72,5.29,5.29,0,0,1,2.6.6,3.57,3.57,0,0,1,1.57,1.71v-1.9h2.84Zm-21.8-8.09V176h-2.92V158h4.7a16,16,0,0,1,3.08.22,4.89,4.89,0,0,1,1.73.71,4.26,4.26,0,0,1,1.41,1.69,5.35,5.35,0,0,1,.51,2.34,5.48,5.48,0,0,1-.51,2.37,4.16,4.16,0,0,1-1.41,1.7,5.07,5.07,0,0,1-1.73.7,16.23,16.23,0,0,1-3.08.21h-1.78Zm.18-2.4h.8a7.4,7.4,0,0,0,3.46-.53,2,2,0,0,0,.86-1.87,2.23,2.23,0,0,0-.93-2,6.85,6.85,0,0,0-3.39-.58h-.8Z"/><rect class="cls-31" x="58.66" y="42.77" width="331.15" height="160.48" rx="6.5"/></svg>